<mxfile host="app.diagrams.net" modified="2024-03-11T13:00:08.592Z" agent="Mozilla/5.0 (Windows NT 10.0; Win64; x64) AppleWebKit/537.36 (KHTML, like Gecko) Chrome/121.0.0.0 Safari/537.36" version="24.0.2" etag="XwBY2mvmj9ZNK87D43DS" type="github">
  <diagram name="Page-1" id="2CyZ1TSGjBe5OHlSDdfM">
    <mxGraphModel>
      <root>
        <mxCell id="0" />
        <mxCell id="1" parent="0" />
      </root>
    </mxGraphModel>
  </diagram>
</mxfile>
